<svg width="1200" height="760" viewBox="0 0 1200 760" fill="none" xmlns="http://www.w3.org/2000/svg">
  <defs>
    <linearGradient id="bgB" x1="173" y1="76" x2="1008" y2="686" gradientUnits="userSpaceOnUse">
      <stop stop-color="#F4F8FA"/>
      <stop offset="0.6" stop-color="#E9EFF3"/>
      <stop offset="1" stop-color="#DCE6EA"/>
    </linearGradient>
    <linearGradient id="panelB" x1="303" y1="190" x2="870" y2="565" gradientUnits="userSpaceOnUse">
      <stop stop-color="#0F2C38"/>
      <stop offset="1" stop-color="#214C5D"/>
    </linearGradient>
    <linearGradient id="chartB" x1="0" y1="0" x2="1" y2="1">
      <stop stop-color="#8FD48D"/>
      <stop offset="1" stop-color="#2E7A5A"/>
    </linearGradient>
  </defs>

  <rect width="1200" height="760" rx="36" fill="url(#bgB)"/>
  <circle cx="958" cy="118" r="88" fill="#EAF0F3"/>
  <circle cx="1048" cy="172" r="28" fill="#DCE7EC"/>

  <rect x="251" y="148" width="698" height="436" rx="34" fill="url(#panelB)"/>
  <rect x="287" y="186" width="274" height="156" rx="24" fill="#F7FBF8"/>
  <rect x="589" y="186" width="324" height="156" rx="24" fill="#F7FBF8"/>
  <rect x="287" y="370" width="626" height="176" rx="24" fill="#F7FBF8"/>

  <rect x="323" y="224" width="146" height="14" rx="7" fill="#DBE7DF"/>
  <rect x="323" y="251" width="102" height="42" rx="16" fill="#214C5D"/>
  <text x="345" y="280" fill="#F8FAFB" font-family="Arial, sans-serif" font-size="28" font-weight="700">CO₂</text>
  <text x="323" y="318" fill="#60746C" font-family="Arial, sans-serif" font-size="18">Carbon intelligence</text>

  <path d="M621 291H875" stroke="#D4E0E6" stroke-width="8" stroke-linecap="round"/>
  <path d="M621 260C655 231 692 216 736 222C775 228 803 252 836 258C853 261 867 258 883 248" stroke="url(#chartB)" stroke-width="10" stroke-linecap="round"/>
  <circle cx="664" cy="241" r="7" fill="#2E7A5A"/>
  <circle cx="742" cy="229" r="7" fill="#2E7A5A"/>
  <circle cx="804" cy="251" r="7" fill="#2E7A5A"/>
  <circle cx="862" cy="256" r="7" fill="#2E7A5A"/>
  <text x="621" y="222" fill="#244B3E" font-family="Arial, sans-serif" font-size="18" font-weight="700">ESG and reporting dashboard</text>

  <rect x="333" y="408" width="170" height="98" rx="20" fill="#EAF2EE"/>
  <rect x="522" y="408" width="170" height="98" rx="20" fill="#EAF0F4"/>
  <rect x="711" y="408" width="170" height="98" rx="20" fill="#EDF3ED"/>

  <path d="M364 469L394 439L422 462L456 424" stroke="#2E7A5A" stroke-width="8" stroke-linecap="round" stroke-linejoin="round"/>
  <path d="M559 483C559 458 579 438 604 438C629 438 649 458 649 483" stroke="#3E6170" stroke-width="10" stroke-linecap="round"/>
  <path d="M760 479H832" stroke="#2E7A5A" stroke-width="10" stroke-linecap="round"/>
  <path d="M760 452H808" stroke="#A7BBC6" stroke-width="10" stroke-linecap="round"/>

  <text x="351" y="433" fill="#60746C" font-family="Arial, sans-serif" font-size="16">Emissions trend</text>
  <text x="549" y="433" fill="#60746C" font-family="Arial, sans-serif" font-size="16">Compliance status</text>
  <text x="741" y="433" fill="#60746C" font-family="Arial, sans-serif" font-size="16">Efficiency indicator</text>

  <rect x="116" y="559" width="230" height="108" rx="28" fill="#FCFEFC" stroke="#D6E1D8" stroke-width="6"/>
  <circle cx="168" cy="612" r="20" fill="#DDEADF"/>
  <path d="M162 618C176 603 196 588 219 578C214 605 196 627 170 638C162 635 157 626 162 618Z" fill="#2D6654"/>
  <text x="208" y="605" fill="#244B3E" font-family="Arial, sans-serif" font-size="20" font-weight="700">ESG Ratings</text>
  <text x="208" y="632" fill="#60746C" font-family="Arial, sans-serif" font-size="17">Reporting and traceability</text>

  <rect x="859" y="88" width="220" height="106" rx="28" fill="#FCFEFC" stroke="#D6E1D8" stroke-width="6"/>
  <text x="896" y="133" fill="#244B3E" font-family="Arial, sans-serif" font-size="20" font-weight="700">Carbon Governance</text>
  <text x="896" y="160" fill="#60746C" font-family="Arial, sans-serif" font-size="17">Data, compliance, incentives</text>
  <circle cx="938" cy="144" r="18" fill="#DDE7E2"/>
  <path d="M932 149L939 129L946 149" stroke="#2D6654" stroke-width="7" stroke-linecap="round" stroke-linejoin="round"/>
  <path d="M939 150V161" stroke="#2D6654" stroke-width="7" stroke-linecap="round"/>
</svg>
