<svg width="1200" height="760" viewBox="0 0 1200 760" fill="none" xmlns="http://www.w3.org/2000/svg">
  <defs>
    <linearGradient id="bgC" x1="139" y1="98" x2="1013" y2="687" gradientUnits="userSpaceOnUse">
      <stop stop-color="#F7FAF8"/>
      <stop offset="0.58" stop-color="#EBF2EE"/>
      <stop offset="1" stop-color="#DFE9E4"/>
    </linearGradient>
    <linearGradient id="globeC" x1="0" y1="0" x2="1" y2="1">
      <stop stop-color="#3B7262"/>
      <stop offset="1" stop-color="#204D41"/>
    </linearGradient>
  </defs>

  <rect width="1200" height="760" rx="36" fill="url(#bgC)"/>
  <circle cx="247" cy="160" r="82" fill="#E8F0EA"/>
  <circle cx="993" cy="120" r="88" fill="#E5EEF1"/>

  <circle cx="374" cy="356" r="150" fill="url(#globeC)"/>
  <path d="M262 356H486" stroke="#8EB2A4" stroke-width="10" stroke-linecap="round"/>
  <path d="M374 244C337 283 316 326 316 375C316 420 333 462 368 500" stroke="#A9C7BC" stroke-width="10" stroke-linecap="round"/>
  <path d="M422 244C458 279 478 320 478 370C478 418 461 462 429 499" stroke="#A9C7BC" stroke-width="10" stroke-linecap="round"/>
  <path d="M268 309C336 336 411 336 480 309" stroke="#A9C7BC" stroke-width="10" stroke-linecap="round"/>
  <path d="M268 404C336 377 411 377 480 404" stroke="#A9C7BC" stroke-width="10" stroke-linecap="round"/>

  <rect x="590" y="184" width="354" height="222" rx="30" fill="#FDFEFE" stroke="#D6E2DA" stroke-width="8"/>
  <rect x="629" y="224" width="182" height="18" rx="9" fill="#DEE9E2"/>
  <rect x="629" y="257" width="130" height="72" rx="20" fill="#EEF4F0"/>
  <text x="662" y="302" fill="#244B3E" font-family="Arial, sans-serif" font-size="26" font-weight="700">ISO</text>
  <rect x="830" y="257" width="73" height="18" rx="9" fill="#DDE7EE"/>
  <rect x="830" y="287" width="96" height="18" rx="9" fill="#DDE7EE"/>
  <rect x="830" y="317" width="56" height="18" rx="9" fill="#DDE7EE"/>
  <text x="629" y="363" fill="#60746C" font-family="Arial, sans-serif" font-size="17">Certificates, standards, and export readiness</text>

  <g>
    <rect x="604" y="463" width="300" height="104" rx="26" fill="#FDFEFE" stroke="#D6E2DA" stroke-width="8"/>
    <rect x="645" y="501" width="80" height="22" rx="11" fill="#2D6654"/>
    <rect x="739" y="501" width="52" height="22" rx="11" fill="#A7BBC6"/>
    <rect x="805" y="501" width="61" height="22" rx="11" fill="#DCE6E1"/>
    <path d="M639 543C685 518 748 517 793 540" stroke="#2D6654" stroke-width="8" stroke-linecap="round"/>
    <text x="645" y="486" fill="#244B3E" font-family="Arial, sans-serif" font-size="18" font-weight="700">Global market access</text>
  </g>

  <g>
    <path d="M496 356H573" stroke="#88A89A" stroke-width="9" stroke-linecap="round"/>
    <path d="M553 333L580 356L553 379" stroke="#88A89A" stroke-width="9" stroke-linecap="round" stroke-linejoin="round"/>
  </g>

  <g>
    <rect x="116" y="540" width="246" height="112" rx="28" fill="#FCFEFC" stroke="#D6E1D8" stroke-width="6"/>
    <text x="154" y="588" fill="#244B3E" font-family="Arial, sans-serif" font-size="20" font-weight="700">Operational Readiness</text>
    <text x="154" y="617" fill="#60746C" font-family="Arial, sans-serif" font-size="17">Efficiency, reporting, and trade position</text>
    <circle cx="318" cy="594" r="22" fill="#E1ECE4"/>
    <path d="M309 601L318 574L327 601" stroke="#2D6654" stroke-width="7" stroke-linecap="round" stroke-linejoin="round"/>
    <path d="M318 602V615" stroke="#2D6654" stroke-width="7" stroke-linecap="round"/>
  </g>

  <g>
    <path d="M930 495L996 495" stroke="#98B4A9" stroke-width="10" stroke-linecap="round"/>
    <path d="M975 468L1007 495L975 522" stroke="#98B4A9" stroke-width="10" stroke-linecap="round" stroke-linejoin="round"/>
    <rect x="931" y="445" width="135" height="100" rx="26" fill="#FDFEFE" stroke="#D6E1D8" stroke-width="6"/>
    <text x="959" y="484" fill="#244B3E" font-family="Arial, sans-serif" font-size="18" font-weight="700">Export Ready</text>
    <text x="959" y="512" fill="#60746C" font-family="Arial, sans-serif" font-size="15">Supply chain confidence</text>
  </g>
</svg>
