<svg width="1200" height="760" viewBox="0 0 1200 760" fill="none" xmlns="http://www.w3.org/2000/svg">
  <defs>
    <linearGradient id="bg3" x1="161" y1="96" x2="1029" y2="676" gradientUnits="userSpaceOnUse">
      <stop stop-color="#F7FAF8"/>
      <stop offset="0.56" stop-color="#EAF2EE"/>
      <stop offset="1" stop-color="#DCE7E2"/>
    </linearGradient>
    <linearGradient id="sea3" x1="313" y1="495" x2="937" y2="650" gradientUnits="userSpaceOnUse">
      <stop stop-color="#D8E6E8"/>
      <stop offset="1" stop-color="#C5D8DA"/>
    </linearGradient>
  </defs>

  <rect width="1200" height="760" rx="36" fill="url(#bg3)"/>
  <circle cx="981" cy="120" r="84" fill="#E6EFF2"/>
  <circle cx="221" cy="134" r="74" fill="#E9F0EB"/>

  <path d="M0 505C141 470 270 468 391 490C521 513 633 555 792 547C929 540 1042 499 1200 444V760H0V505Z" fill="url(#sea3)"/>
  <path d="M0 562C183 530 338 534 487 566C625 595 756 620 905 602C1016 588 1105 549 1200 505V760H0V562Z" fill="#D2E0DE"/>

  <rect x="183" y="224" width="262" height="188" rx="28" fill="#FCFEFC" stroke="#D7E2DA" stroke-width="8"/>
  <rect x="503" y="170" width="330" height="238" rx="30" fill="#FCFEFC" stroke="#D7E2DA" stroke-width="8"/>
  <rect x="879" y="252" width="160" height="138" rx="24" fill="#FCFEFC" stroke="#D7E2DA" stroke-width="8"/>

  <circle cx="314" cy="317" r="64" fill="#E7F1EA"/>
  <path d="M268 317H360" stroke="#8FB3A3" stroke-width="8" stroke-linecap="round"/>
  <path d="M314 271C298 289 289 307 289 329C289 349 297 367 311 384" stroke="#8FB3A3" stroke-width="8" stroke-linecap="round"/>
  <path d="M339 271C354 286 362 304 362 326C362 347 355 366 342 384" stroke="#8FB3A3" stroke-width="8" stroke-linecap="round"/>
  <text x="233" y="390" fill="#60746C" font-family="Arial, sans-serif" font-size="17">Trade routes and market reach</text>

  <text x="541" y="214" fill="#244B3E" font-family="Arial, sans-serif" font-size="20" font-weight="700">Global market access</text>
  <path d="M542 250H794" stroke="#D6E2D8" stroke-width="8" stroke-linecap="round"/>
  <path d="M542 286H754" stroke="#D6E2D8" stroke-width="8" stroke-linecap="round"/>
  <path d="M542 321H711" stroke="#D6E2D8" stroke-width="8" stroke-linecap="round"/>
  <path d="M552 360C597 318 642 301 697 307C739 311 775 336 811 334" stroke="#2D6654" stroke-width="10" stroke-linecap="round"/>
  <circle cx="596" cy="326" r="7" fill="#2D6654"/>
  <circle cx="689" cy="307" r="7" fill="#2D6654"/>
  <circle cx="770" cy="333" r="7" fill="#2D6654"/>

  <path d="M918 364L938 327L964 348L995 307" stroke="#2D6654" stroke-width="8" stroke-linecap="round" stroke-linejoin="round"/>
  <text x="904" y="287" fill="#60746C" font-family="Arial, sans-serif" font-size="15">Export</text>

  <g>
    <rect x="241" y="494" width="212" height="78" rx="24" fill="#FBFDFC" stroke="#D7E2DA" stroke-width="6"/>
    <text x="276" y="534" fill="#244B3E" font-family="Arial, sans-serif" font-size="20" font-weight="700">Export Ready</text>
    <text x="276" y="558" fill="#60746C" font-family="Arial, sans-serif" font-size="16">Compliance and logistics confidence</text>
  </g>

  <g>
    <rect x="713" y="492" width="268" height="92" rx="26" fill="#FBFDFC" stroke="#D7E2DA" stroke-width="6"/>
    <text x="750" y="531" fill="#244B3E" font-family="Arial, sans-serif" font-size="20" font-weight="700">Supply Chain Alignment</text>
    <text x="750" y="559" fill="#60746C" font-family="Arial, sans-serif" font-size="16">Readiness for procurement and trade</text>
  </g>

  <g>
    <path d="M456 518H706" stroke="#9AB6AB" stroke-width="8" stroke-linecap="round" stroke-dasharray="10 10"/>
    <path d="M684 492L719 518L684 544" stroke="#9AB6AB" stroke-width="8" stroke-linecap="round" stroke-linejoin="round"/>
  </g>
</svg>
