<svg width="1200" height="760" viewBox="0 0 1200 760" fill="none" xmlns="http://www.w3.org/2000/svg">
  <defs>
    <linearGradient id="bgA" x1="164" y1="84" x2="1044" y2="706" gradientUnits="userSpaceOnUse">
      <stop stop-color="#F4FAF5"/>
      <stop offset="0.58" stop-color="#E5F0E8"/>
      <stop offset="1" stop-color="#D6E5DD"/>
    </linearGradient>
    <linearGradient id="hillA" x1="209" y1="428" x2="999" y2="641" gradientUnits="userSpaceOnUse">
      <stop stop-color="#CFE2D3"/>
      <stop offset="1" stop-color="#B8D2BF"/>
    </linearGradient>
    <linearGradient id="panelA" x1="361" y1="463" x2="915" y2="520" gradientUnits="userSpaceOnUse">
      <stop stop-color="#19493B"/>
      <stop offset="1" stop-color="#2F6856"/>
    </linearGradient>
    <linearGradient id="glassA" x1="547" y1="307" x2="838" y2="435" gradientUnits="userSpaceOnUse">
      <stop stop-color="#5C7E8A"/>
      <stop offset="1" stop-color="#A7C1C9"/>
    </linearGradient>
  </defs>

  <rect width="1200" height="760" rx="36" fill="url(#bgA)"/>
  <circle cx="938" cy="151" r="93" fill="#EAF3EC"/>
  <circle cx="1014" cy="113" r="30" fill="#D8E6DB"/>
  <path d="M0 517C162 453 292 427 461 450C615 470 711 536 861 540C987 543 1083 502 1200 433V760H0V517Z" fill="url(#hillA)"/>
  <path d="M0 586C133 553 239 540 346 560C463 582 554 643 693 647C864 652 1020 581 1200 508V760H0V586Z" fill="#C5D9CC"/>

  <rect x="472" y="303" width="336" height="161" rx="22" fill="#EDF4F2" stroke="#D1E0D6" stroke-width="8"/>
  <rect x="545" y="328" width="245" height="96" rx="16" fill="url(#glassA)"/>
  <rect x="512" y="424" width="265" height="18" rx="9" fill="#204F43"/>
  <rect x="531" y="449" width="225" height="15" rx="7.5" fill="#A1BDB0"/>
  <rect x="596" y="265" width="90" height="50" rx="14" fill="#1D4F41"/>
  <rect x="618" y="279" width="44" height="18" rx="9" fill="#D8E5DD"/>

  <rect x="340" y="468" width="520" height="54" rx="20" fill="url(#panelA)"/>
  <path d="M340 489H860" stroke="#A8CABB" stroke-width="4" stroke-dasharray="6 8"/>
  <path d="M397 465L447 373" stroke="#8FB39F" stroke-width="8" stroke-linecap="round"/>
  <path d="M804 465L754 373" stroke="#8FB39F" stroke-width="8" stroke-linecap="round"/>

  <g>
    <path d="M240 483L334 438L383 483H240Z" fill="#2A5B4D"/>
    <rect x="248" y="488" width="140" height="13" rx="6.5" fill="#193E34"/>
    <path d="M262 453L331 420L365 453H262Z" fill="#3C7564"/>
    <path d="M283 443L320 425" stroke="#D1E2D9" stroke-width="3"/>
    <path d="M325 447L348 437" stroke="#D1E2D9" stroke-width="3"/>
  </g>

  <g>
    <path d="M828 483L922 438L971 483H828Z" fill="#2A5B4D"/>
    <rect x="836" y="488" width="140" height="13" rx="6.5" fill="#193E34"/>
    <path d="M850 453L919 420L953 453H850Z" fill="#3C7564"/>
    <path d="M871 443L908 425" stroke="#D1E2D9" stroke-width="3"/>
    <path d="M913 447L936 437" stroke="#D1E2D9" stroke-width="3"/>
  </g>

  <g>
    <path d="M189 513H431V545H189V513Z" fill="#E9F1EC"/>
    <path d="M735 513H996V545H735V513Z" fill="#E9F1EC"/>
  </g>

  <g>
    <path d="M154 483C154 430 198 387 251 387H303C356 387 400 430 400 483V494H154V483Z" fill="#DDEADF"/>
    <path d="M800 494C800 439 844 395 899 395H942C997 395 1041 439 1041 494H800Z" fill="#DDEADF"/>
  </g>

  <g>
    <rect x="96" y="530" width="172" height="78" rx="24" fill="#F6FBF7" stroke="#D4E2D8" stroke-width="6"/>
    <circle cx="141" cy="569" r="19" fill="#DCEADF"/>
    <path d="M136 574C150 559 168 543 190 531C186 558 169 579 145 590C137 587 132 580 136 574Z" fill="#2D6654"/>
    <text x="178" y="558" fill="#244B3E" font-family="Arial, sans-serif" font-size="19" font-weight="700">Green</text>
    <text x="178" y="584" fill="#60746C" font-family="Arial, sans-serif" font-size="17">Industrial Park</text>
  </g>

  <g>
    <rect x="909" y="128" width="180" height="88" rx="24" fill="#F9FCFA" stroke="#D5E1D8" stroke-width="6"/>
    <circle cx="959" cy="172" r="21" fill="#E2EBE4"/>
    <path d="M950 182L959 154L968 182" stroke="#2D6654" stroke-width="7" stroke-linecap="round" stroke-linejoin="round"/>
    <path d="M959 183V195" stroke="#2D6654" stroke-width="7" stroke-linecap="round"/>
    <text x="993" y="166" fill="#244B3E" font-family="Arial, sans-serif" font-size="18" font-weight="700">Net Zero Ready</text>
    <text x="993" y="191" fill="#60746C" font-family="Arial, sans-serif" font-size="16">Industrial infrastructure</text>
  </g>

  <g>
    <path d="M135 520L135 336" stroke="#C8D9CF" stroke-width="8" stroke-linecap="round"/>
    <path d="M135 336L110 363" stroke="#C8D9CF" stroke-width="8" stroke-linecap="round"/>
    <path d="M135 336L160 363" stroke="#C8D9CF" stroke-width="8" stroke-linecap="round"/>
    <path d="M135 391L103 425" stroke="#C8D9CF" stroke-width="8" stroke-linecap="round"/>
    <path d="M135 391L168 425" stroke="#C8D9CF" stroke-width="8" stroke-linecap="round"/>
  </g>

  <g>
    <path d="M1044 520L1044 320" stroke="#C8D9CF" stroke-width="8" stroke-linecap="round"/>
    <path d="M1044 320L1017 349" stroke="#C8D9CF" stroke-width="8" stroke-linecap="round"/>
    <path d="M1044 320L1071 349" stroke="#C8D9CF" stroke-width="8" stroke-linecap="round"/>
    <path d="M1044 381L1008 419" stroke="#C8D9CF" stroke-width="8" stroke-linecap="round"/>
    <path d="M1044 381L1080 419" stroke="#C8D9CF" stroke-width="8" stroke-linecap="round"/>
  </g>

  <path d="M496 598C557 566 638 564 704 594" stroke="#7EA591" stroke-width="10" stroke-linecap="round"/>
  <path d="M463 628C546 595 659 595 746 628" stroke="#95B2A1" stroke-width="8" stroke-linecap="round"/>
</svg>
